<?xml version="1.0" encoding="utf-8"?>
<!-- Generator: Adobe Illustrator 23.0.4, SVG Export Plug-In . SVG Version: 6.00 Build 0)  -->
<svg version="1.1" id="Layer_1" xmlns="http://www.w3.org/2000/svg" xmlns:xlink="http://www.w3.org/1999/xlink" x="0px" y="0px"
	 viewBox="0 0 100 100" style="enable-background:new 0 0 100 100;" xml:space="preserve">
<style type="text/css">
	.st0{opacity:0.8;}
	.st1{fill:#FFFFFF;}
</style>
<g class="st0">
	<path class="st1" d="M60.4,39.5c0.4,1.4,1,2.5,1.1,3.7c0.1,0.7-0.4,1.7-1,2.3c-0.9,1-2,1.8-3.2,2.9c1.6,1.4,3.2,2.7,4.8,4
		c-0.2,0.6-0.4,1.1-0.6,1.6c-0.8,1.7-1.6,2.1-3.4,1.6c-2.1-0.7-4.2-1.4-6.6-2.3c-1.6,1.4-2.9,3.3-4.4,5.1c-0.2,0.3-0.4,0.7-0.6,1
		c-0.8,1-1.8,0.9-2.5-0.2c-0.3-0.4-0.3-0.9-0.6-1.3c-0.2-0.3-0.5-0.6-0.9-1c1.7-2,3.3-3.9,5.1-6c-1.4-0.8-2.6-1.4-3.8-2.2
		c-0.7-0.4-1.4-0.8-1.9-1.4c-0.7-0.7-0.9-1.7-0.3-2.6c1.3-2,3.3-2.6,5.6-1.7c0.7,0.3,1.4,0.7,2.1,1.1c0.7,0.3,1.4,0.7,2.1,1
		c2.1,0.8,2.1,0.7,3.5-1.1C56.4,42.3,57.5,40.2,60.4,39.5z"/>
	<path class="st1" d="M74.8,30.6c0.1-4.3,4.3-6.2,5.9-9.8c-1.5-1.1-3-2.1-4.4-3.1c-0.7-0.5-1.4-1.1-2-1.7c-1.3-1.2-1.4-2.2-0.4-3.4
		c0.8-1,2.5-1.2,3.7-0.5c1.8,1.2,3.5,2.5,5.3,3.7c2.1,1.4,2.2,1.4,3.5-0.6c1.4-2,3.2-3.4,5.2-4.6c1,0.8,1.2,1.6,0.6,2.6
		c-1.2,2.1-2.3,4.3-3.6,6.8c1.5,1.5,3.2,3.3,5,5.1c-2.6,2.3-2.8,2.2-7.9-1c-1.1,1.2-2.3,2.5-3.4,3.8c-0.4,0.4-0.6,0.9-1,1.4
		C78.2,32.7,78.9,32.5,74.8,30.6z"/>
	<path class="st1" d="M48.5,6.6c0.4,0.6,0.6,1,0.8,1.5c0.5,1.3,0.4,1.6-1,2.1c-1.2,0.5-2.5,1-3.7,1.5c0.6,2.2,1.1,4.2,1.6,6.1
		c-2.3,1.5-2.8,1.5-4.2-0.2c-0.5-0.5-0.9-1.1-1.4-1.6c-0.2-0.2-0.5-0.4-0.8-0.6c-0.6,0.4-1.3,0.7-1.8,1.2c-0.9,0.9-2,0.9-3.1,0.9
		c-1.5,0-2.2-1.1-1.3-2.3c0.7-0.9,1.7-1.6,2.6-2.3c0.4-0.3,0.8-0.5,1.1-0.8c0.2-1.3-0.3-2.2-1.1-3c-0.5-0.6-1.1-1.5-1.1-2.2
		c0.1-1.7,2.2-2.6,3.6-1.4c1.3,1,2.4,2.3,3.6,3.5C44.6,8.8,46.1,6.5,48.5,6.6z"/>
	<path class="st1" d="M82.2,80.9c0.4-1.3,0.7-2.5,1.1-3.6c0.8-2,1.6-2.1,3.3-0.7c0.2,0.2,0.5,0.3,0.7,0.5c-0.2,0.9-0.5,1.8-0.5,2.6
		c-0.1,0.8,0,1.7,0.1,2.6c0.9,0.2,1.5,0.4,2.2,0.5c2.9,0.5,2.9,0.5,3,3.7c-2.2,0.3-4.5,0.6-6.4,0.8c-1,1.5-1.8,2.8-2.8,4
		c-0.4,0.6-1.2,1-1.9,0.4c-0.4-0.4-0.7-1.2-0.6-1.8c0.4-4,0.5-4-3.3-5.6c-0.1,0-0.2,0-0.2-0.1c-1.6-0.7-2.2-1.4-2-2.2
		c0.2-0.9,2.1-2.1,3.3-1.9c1,0.2,2,0.5,3,0.7C81.5,81,81.8,80.9,82.2,80.9z"/>
	<path class="st1" d="M16.1,43.5c1-1.3,1.8-2.3,2.6-3.3c0.8-0.9,1.3-2.2,2.8-2.2c0.1,1.7-0.9,4.1-3.1,7.3c0.7,0.7,1.5,1.5,2.2,2.3
		c0.4,0.5,0.8,1,1.2,1.5c0.4,0.6,1.1,1.2,0.4,1.9s-1.5,1.1-2.5,0.4c-1.3-0.8-2.7-1.6-4.3-2.5c-0.8,0.8-1.7,1.6-2.6,2.5
		c-0.5,0.5-1,1-1.5,1.5c-0.6,0.5-1.3,0.6-1.9,0.1c-0.8-0.6-0.4-1.3,0-1.9c0.5-0.8,1.2-1.4,1.8-2.2c0.6-0.7,1.1-1.3,1.8-2.2
		c-0.8-0.9-1.5-1.7-2.3-2.5c-0.4-0.5-1-0.8-1.4-1.3c-1.1-1.1-1.3-2-0.5-2.9c0.8-1,2.3-1.1,3.4-0.2C13.3,41,14.5,42.1,16.1,43.5z"/>
	<path class="st1" d="M59.2,78.7c-0.5,0.6-0.9,1.1-1.4,1.7s-1,1.2-1.6,1.9c0.8,2.2,2.7,4.1,2.4,6.7c0,0.2-0.4,0.4-0.9,0.9
		c-1.9-1.8-3.7-3.6-5.7-5.6c-0.8,0.4-1.7,0.9-2.6,1.4c-0.5,0.3-0.9,0.6-1.4,0.9c-1,0.5-2.2,0.1-2.7-0.7c-0.4-0.8-0.1-1.5,1.2-2.2
		c1.2-0.6,2.5-1.3,3.9-2.1c-0.6-1.1-1-2.1-1.6-2.9c-0.6-0.9-0.4-1.7,0.1-2.4c0.7-1.2,1.7-1.3,2.6-0.3c0.9,1,1.7,2.1,2.8,3.4
		c1.2-0.4,2.7-0.8,4.3-1.3C58.9,78.3,59.1,78.5,59.2,78.7z"/>
	<path class="st1" d="M11.2,78.2c-1.5-1-2.7-1.7-3.8-2.5c-0.4-0.3-1-1-0.9-1.4c0.1-0.5,0.8-1,1.4-1.1c0.9-0.1,1.9,0.1,2.8,0.3
		c0.9,0.2,1.7,0.7,2.7,1.1c1.7-1.4,2.6-4.2,5.7-3.5c-0.9,1.8-1.7,3.6-2.6,5.4c1.3,1.9,3.6,2.8,4.2,5.2c-1.3,0.6-2.5,0.4-3.6-0.2
		c-0.5-0.3-0.9-0.7-1.3-1C14.5,79.6,14,79.7,13,81c-0.6,0.7-1.1,1.5-1.8,2.2c-0.6,0.5-1.2,1.1-2.1,0.4c-0.8-0.6-1-1.9-0.3-2.8
		C9.4,79.9,10.2,79.3,11.2,78.2z"/>
	<path class="st1" d="M28.8,34.8c0.6-0.3,1.1-0.4,1.4-0.7c1.2-1,1.2-1.3,0.2-2.5c-1.5-1.8-1.3-3.7-0.6-5.7c2.7-0.3,3.3,2.4,5.4,3.2
		c0.9-0.8,1.9-1.6,2.9-2.5c1.6,1.6,0.2,3-0.5,4.5c0.5,0.5,1,1,1.4,1.5c0.9,1,0.9,2.8-0.1,3.6c-0.6,0.5-1.4,0.8-2.2,0.3
		c-0.5-0.3-0.9-0.7-1.3-1c-1.3-1-1.7-1-3.2-0.1c-0.3,0.2-0.6,0.5-0.9,0.7C30.3,36.7,30.1,36.6,28.8,34.8z"/>
	<path class="st1" d="M15.5,8.8c1.2,0.2,2,0.9,2.2,2.4c0.3,1.6,0.3,3.2,0.5,4.7c0.3,2.4,0.7,4.8,1,7.2c0.2,1.1-0.2,1.9-1.3,2.2
		c-1.5,0.4-2,0.1-2.2-1.5c0-0.5,0.1-1.1-0.2-1.4c-1.6-2-1.2-4.4-1.6-6.6c-0.2-1.4-0.5-2.8-0.9-4.1C12.5,9.8,13.4,8.5,15.5,8.8z"/>
	<path class="st1" d="M89.6,56.2c-0.9-0.1-1.2-0.1-1.4-0.2c-2-1.2-4.2-2.2-5.7-3.8c-2.2-2.3-3.9-5.1-5.8-7.8
		c-0.3-0.4-0.4-0.9-0.3-1.3c0.1-0.6,0.4-1.5,0.8-1.7s1.3,0.2,1.9,0.5c0.4,0.2,0.7,0.6,1,1c2.9,3.8,5.8,7.7,8.7,11.6
		C89,54.8,89.2,55.3,89.6,56.2z"/>
	<path class="st1" d="M33.5,53.8c0.6,0.7,1.1,1.2,1.4,1.7c0.6,1.1,0.5,2-0.6,2.6c-2.2,1.2-4.5,2.2-6.8,3.3c-1.1,0.5-2.2,1-3.2,1.4
		c-1.4,0.6-3.1,0.4-3.4-0.4c-0.4-0.8,0.2-2,1.7-2.8C26.1,57.7,29.7,55.9,33.5,53.8z"/>
	<path class="st1" d="M74.8,60.3c-1.1,2.8-1,6.1-3.9,8.2c-1.4,1-2.6,2.1-3.9,3.1c-0.7,0.6-1.4,1-2.3,0.2c-0.8-0.7-1.3-2.1-1-2.9
		c0.2-0.4,0.4-0.7,0.6-1c2.7-2.3,5.3-4.7,8-7c0.6-0.5,1.3-0.7,2-1C74.5,60.1,74.6,60.2,74.8,60.3z"/>
	<path class="st1" d="M25.5,94.3c-0.3-4.5,3-7.1,5.1-10.4c0.8-1.2,2-2.8,4.3-2.7c-0.1,0.8,0,1.5-0.2,2.2c-0.1,0.5-0.3,1.1-0.7,1.5
		c-2,2.9-4,5.8-6.1,8.7C27.5,94.5,26.7,95.4,25.5,94.3z"/>
	<path class="st1" d="M30.8,73.6c-1.2-0.2-1.6-1-0.8-1.9c0.5-0.6,1.1-1.1,1.8-1.4c3.3-1.2,6.6-2.1,10.1-2.3c0.5,0,1.3,0.2,1.6,0.6
		c0.2,0.3,0,1.1-0.2,1.5c-0.4,0.6-0.9,1.3-1.5,1.4c-3.5,0.8-7,1.4-10.4,2C31.1,73.7,30.9,73.6,30.8,73.6z"/>
	<path class="st1" d="M62.3,9.1c0.3,2.9-0.3,5.3-2,7.3c-1.6,1.9-3.4,3.5-5.1,5.2c-0.3,0.3-1.1,0.6-1.4,0.4c-0.4-0.2-0.7-0.8-0.8-1.3
		c-0.1-1.3,0.1-2.5,1.3-3.6C56.9,14.7,59.4,12,62.3,9.1z"/>
	<path class="st1" d="M65.8,24.7c1.5,1.7,2.9,3.5,3.5,5.8c0.4,1.3,1.2,2.5,1.9,3.8c0.3,0.6,0.8,1.2,0.2,1.9
		c-0.7,0.8-1.4,0.5-2.1,0.1c-0.5-0.3-1-0.5-1.3-0.9c-1-1.5-1.9-3.1-2.8-4.7C63.8,28.4,64,26.5,65.8,24.7z"/>
</g>
</svg>
