<?xml version="1.0" encoding="utf-8"?>
<!-- Generator: Adobe Illustrator 23.0.4, SVG Export Plug-In . SVG Version: 6.00 Build 0)  -->
<svg version="1.1" id="Layer_1" xmlns="http://www.w3.org/2000/svg" xmlns:xlink="http://www.w3.org/1999/xlink" x="0px" y="0px"
	 viewBox="0 0 100 100" style="enable-background:new 0 0 100 100;" xml:space="preserve">
<style type="text/css">
	.st0{opacity:0.8;}
	.st1{fill:#FFFFFF;}
</style>
<g class="st0">
	<path class="st1" d="M87.9,51.7c-1.2,0-2.8-0.7-4.2-1.7c-1.1-0.8-1.3-1.7-0.7-2.9c1.4-2.9,5.3-3.8,7.7-1.8c0.7,0.6,1.3,3.2,1,4.1
		C91.2,50.9,90,51.8,87.9,51.7z"/>
	<path class="st1" d="M49.9,17.7c-0.2,3-1.4,4.1-4.1,4c-2.1-0.1-3.5-1.7-3.3-3.8c0.1-1.7,1.8-3.2,3.6-3.1C48.7,15,50,16,49.9,17.7z"
		/>
	<path class="st1" d="M80.9,25.2c0.1,2-1.3,3.5-3.1,3.8c-1.9,0.3-3.7-0.7-4-2.3c-0.1-0.6,0-1.3,0.3-1.9c0.8-1.6,2.3-2.4,4-2.9
		c0.9-0.3,2.1,0.6,2.5,1.7C80.8,24.2,80.8,24.9,80.9,25.2z"/>
	<path class="st1" d="M32.2,66.7c-1.7,0-3.3-1.4-3.9-3.2c-0.4-1.5,0.2-3.5,1.4-4.4c0.7-0.6,1.4-0.7,2.2,0c1.7,1.4,2.6,3.2,2.6,5.4
		C34.4,65.9,33.5,66.7,32.2,66.7z"/>
	<path class="st1" d="M29,32.7c-1.2-0.4-2.4-0.7-3.5-1.2c-0.4-0.2-0.8-0.9-0.8-1.4c-0.1-1.2,1.4-3.2,3.7-3.7
		c1.4-0.3,2.9,0.3,3.7,1.8c0.5,1,0.8,2.1,0,3.2C31.4,32.3,30.6,32.6,29,32.7z"/>
	<path class="st1" d="M81.6,88c0,1.4-1.3,3.4-2.5,3.9C79,92,78.8,92,78.7,92c-1.4,0.3-3.7-1.9-4-3.8c-0.2-1.3,1.2-3,2.7-3.3
		C78.7,84.7,81.6,86.8,81.6,88z"/>
	<path class="st1" d="M93.5,7.5c-0.3,1.6-0.3,3.5-2,4.2c-1.7,0.7-3-0.8-4.3-1.7c-0.9-0.6-0.7-1.5-0.3-2.4C87.8,6,89.4,5.3,91,4.9
		C92.4,4.6,93.5,6,93.5,7.5z"/>
	<path class="st1" d="M70.6,11.9c0,1.6-1.5,2.9-3.4,2.9c-1.5,0-3.7-2-3.7-3.4c0-1.5,1.8-2.9,3.7-3C69.5,8.4,70.6,9.5,70.6,11.9z"/>
	<path class="st1" d="M41.4,80.8c0.2,1.3,0.5,2.4,0.5,3.6c0.1,1.6-1.1,2.8-2.7,2.9c-1.8,0.1-3.8-1.2-3.8-2.7c0-0.5,0.2-1.2,0.5-1.6
		C37.3,81.4,38.8,80.3,41.4,80.8z"/>
	<path class="st1" d="M87,75.8c-2.1,0-2.9-1-2.8-2.6c0.3-3,3.5-4.6,6-3c0.3,0.2,0.7,0.9,0.6,1.2c-0.3,1.1-0.5,2.5-1.2,3.2
		C89,75.5,87.6,75.6,87,75.8z"/>
	<path class="st1" d="M49.3,67.1c-0.1,2.2-2.2,3.6-4.2,2.6c-0.3-0.2-0.6-0.4-1-0.5c-1.8-0.9-2.2-1.7-1-3.3c0.6-0.8,1.5-1.5,2.3-1.9
		C46.9,63.2,49.4,65.3,49.3,67.1z"/>
	<path class="st1" d="M26.8,12.9c-1.8,0-2.8-0.9-2.7-2.5c0.1-1.8,1.6-3.5,3.3-3.5c1.4,0,3.3,1.7,3.3,3C30.8,11.7,29.1,13,26.8,12.9z
		"/>
	<path class="st1" d="M69.7,58.6c1.9,0,3,1.4,2.9,3.4c0,1.5-1.1,2.3-2.9,2.3c-1.6,0-3.6-1.6-3.6-2.8C66.1,59.8,67.7,58.5,69.7,58.6z
		"/>
	<path class="st1" d="M58,86.7c-0.2,0-0.8-0.1-1.2-0.3c-0.9-0.4-2.2-0.6-2.1-2c0.1-1.4,0.8-2.5,2.1-3.2c1.1-0.6,2-0.4,3,0.6
		c0.2,0.2,0.4,0.5,0.6,0.7c1,0.9,1,2,0.5,3.1C60.5,86.7,59.4,86.8,58,86.7z"/>
	<path class="st1" d="M58.2,41.6c-1.9,0-2.8-0.8-2.8-2.6c0-1.5,1.7-3.4,3.1-3.5c1.2-0.1,2.6,1.7,2.5,3.4
		C61,40.6,59.9,41.6,58.2,41.6z"/>
	<path class="st1" d="M5.6,91.8c0-1.4,0.7-2.3,1.6-2.7c0.6-0.3,1.5,0.2,2.2,0.4c0.4,0.1,0.7,0.5,1,0.8c1.1,1.3,1.2,3.3,0.3,4
		c-1.6,1.1-3.8,0.7-4.7-1C5.7,92.7,5.7,92.1,5.6,91.8z"/>
	<path class="st1" d="M16.1,25.3c-1.2-0.1-2.4-0.3-2.7-1.4c-0.2-0.6,0.1-1.4,0.4-2c0.6-1,1.6-1.3,2.7-1c0.4,0.1,0.8,0.3,1.2,0.5
		c0.7,0.3,1.6,0.6,1.5,1.7c-0.1,1-0.8,1.6-1.6,1.9C17.1,25.1,16.5,25.2,16.1,25.3z"/>
	<path class="st1" d="M94.3,30.7c0,1.3-1.2,2.6-2.5,2.6c-1,0-2.6-1.7-2.6-2.9c0-1,1.7-2.5,2.7-2.5C93.2,28,94.3,29.4,94.3,30.7z"/>
	<path class="st1" d="M44,47.6c0,1.3-1,2.3-2.2,2.3c-1.8,0-3.3-1.1-3.2-2.4c0.1-1.1,1.7-2.3,3.2-2.3C43.2,45.3,44,46.2,44,47.6z"/>
	<path class="st1" d="M7.9,62.1c-1.2-1.2-1.1-2.6-1-3.9c0.1-0.9,0.7-1.8,1.6-1.8c0.6,0,1.3,0.6,1.7,1.1c0.9,1,1.3,2.1,0.7,3.7
		C10.1,61.4,9,61.7,7.9,62.1z"/>
	<path class="st1" d="M25.7,42.6c1.5,0,2.5,0.9,2.4,2.2s-1.2,2.4-2.4,2.3c-1.6-0.1-2.8-1.2-2.8-2.5C22.8,43.3,23.9,42.5,25.7,42.6z"
		/>
	<path class="st1" d="M73.4,46.8c0,1.5-0.8,2.5-2.2,2.5c-1.2,0-2.6-1-2.7-1.9c-0.1-1.2,1.5-3,2.8-3.1C72.5,44.3,73.4,45.4,73.4,46.8
		z"/>
	<path class="st1" d="M10.7,36.1c1,1,1.9,1.8,2.6,2.6c0.6,0.7,0.6,1.6,0,2.2c-0.4,0.4-1.3,0.7-1.9,0.6c-2-0.2-2.9-1.9-2-3.7
		C9.6,37.4,10,37,10.7,36.1z"/>
	<path class="st1" d="M91.4,89.5c1.8,0,3.6,2.7,2.9,4.1c-0.5,1-2.4,1.2-3.5,0.3c-1-0.8-1.1-3.1-0.2-4C90.8,89.7,91.2,89.6,91.4,89.5
		z"/>
	<path class="st1" d="M30.7,94.5c-1.6,0.2-3.2,0.1-3.7-1.4c-0.7-2.1,1.3-2.6,2.4-3.7C31.4,90.9,31.7,92,30.7,94.5z"/>
	<path class="st1" d="M15.9,72.4c0.2-0.2,0.3-0.3,0.5-0.4c1.8-1.2,3-0.6,3.3,1.6c0.1,0.5,0,1-0.1,1.5c-0.2,1-0.7,1.9-1.7,1.6
		c-0.8-0.2-1.5-1.1-1.9-1.9C15.6,74.2,15.9,73.2,15.9,72.4z"/>
	<path class="st1" d="M10.3,11.4c-0.6,0.1-1.1,0.3-1.6,0.3c-1.4,0.1-2.3-0.3-2.6-1.2C5.7,9.2,6.2,7.4,7.2,6.9c0.3-0.2,0.9-0.2,1.2,0
		C9.2,7.3,10.3,10,10.3,11.4z"/>
	<path class="st1" d="M57.1,56.9c0,1.4-1,2.3-2.2,2.2c-1-0.1-1.6-0.8-1.6-1.7c0-1,1.3-2.5,2.4-2.6C56.5,54.7,57.1,55.7,57.1,56.9z"
		/>
</g>
</svg>
