<?xml version="1.0" encoding="utf-8"?>
<!-- Generator: Adobe Illustrator 23.0.4, SVG Export Plug-In . SVG Version: 6.00 Build 0)  -->
<svg version="1.1" id="Layer_1" xmlns="http://www.w3.org/2000/svg" xmlns:xlink="http://www.w3.org/1999/xlink" x="0px" y="0px"
	 viewBox="0 0 100 100" style="enable-background:new 0 0 100 100;" xml:space="preserve">
<style type="text/css">
	.st0{opacity:0.8;}
	.st1{fill:#FFFFFF;}
</style>
<g class="st0">
	<path class="st1" d="M21.9,34.1c-1.1,1-1.3,2.2-1.5,3.4c-0.2,1.6-0.9,3.1-1.9,4.4c-1.1,1.4-1.9,1.5-3.1,0.3c-2.5-2.5-5-5-7.4-7.6
		c-1.3-1.3-1.1-2.3,0.7-3.4c2.7,2.3,5.4,4.6,8.4,7.1c0.4-1.1,0.7-2.1,1.1-3.1c0.3-1,0.7-1.9,0.9-2.9c0.6-2.4,0.6-2.4,2.9-3.1
		c2,1.4,4,2.8,5.5,4.8c1.1,1.5,2.9,2.2,4.9,3c0.1-1.6,0.2-3.1,0.3-4.5c0.2-2,0.3-4,0.6-5.9c0.3-2,1.7-2.7,3.5-1.8
		c2.3,1.2,4.4,2.7,6.7,3.9c2,1.1,4.1,1.9,6.5,3c0.4-1.7,0.7-3.2,1.1-4.7c0.4-1.6,1-3.1,1.5-4.6c0.3-0.8,0.9-1,1.6-0.8
		c0.8,0.2,1,0.9,0.7,1.6c-1.4,2.9-1.6,6.1-2,9.2c-0.1,0.6-0.3,1.1-0.6,1.6c-0.8,1.3-1.1,1.5-2.5,0.9c-3-1.3-6-2.7-9-4.2
		c-1.5-0.7-2.9-1.6-4.8-2.6c-0.2,1.7-0.6,3-0.6,4.4c0,2,0.1,4,0.4,5.9c0.2,1.4-0.3,2.4-1.2,3.1c-1,0.7-1.9-0.1-2.8-0.7
		c-3.1-2.2-6.1-4.4-9.1-6.5C22.4,34.3,22.2,34.2,21.9,34.1z"/>
	<path class="st1" d="M31.4,95c-2.3-0.5-4.5-0.9-6.7-1.4c-1.2-0.3-2.4-0.6-3.6-1c-2.1-0.6-3-2.2-2-4.2c1.1-2.1,2.5-3.9,3.9-5.8
		c0.5-0.7,1.1-1.3,1.8-2.2c-2.9-1.2-5.4-2.2-8-3.3c-0.9-0.4-1.8-0.6-2.7-1c-2.3-0.9-2.5-2.9-0.7-4.7c1.9-2,3.8-4.1,5.6-6.2
		c0.2-0.2,0.3-0.5,0.5-1c-2.3-0.9-4.6-1.4-6.8-1.9c-2.3-0.5-4.1-1.9-6-3.6c0.6-0.7,1.2-1.3,1.9-2.1c3.7,2.7,8.2,2.5,12.2,3.5
		c2.8,0.7,3.4,2.2,1.9,4.6c-1.6,2.5-3.4,4.8-5.7,6.7c-0.6,0.5-1,1.1-1.7,1.9c1.3,0.5,2.3,0.9,3.4,1.4c2.4,1.1,4.7,2,7.3,2.4
		c2.5,0.4,3.2,2.3,1.7,4.3c-1.2,1.6-2.6,3.2-3.9,4.8c-0.8,1-1.5,1.9-2.5,3.2c2,0.5,3.6,0.9,5.2,1.4c1.3,0.4,2.7,0.8,3.9,1.3
		C31.5,92.5,32.2,93.3,31.4,95z"/>
	<path class="st1" d="M56.1,57.3c-1.1,1.6-2,3.1-3,4.5c-0.5,0.8-1.1,1.6-1.7,2.3c-1.2,1.3-3,1.2-4.3,0c-1.9-2-3.6-4.1-4.6-6.7
		c-0.3-0.7-0.8-1.4-1.3-2.3c-2.5,1-3.1,4.1-5.9,4.8c0-0.6-0.2-1.2,0-1.6c0.7-1.2,1.4-2.5,2.3-3.4c1.4-1.3,3-2.4,4.6-3.4
		c1.4-0.9,1.8-0.7,2.5,0.8c0.9,2,1.7,4.1,2.5,6.1c0.7,1.5,0.7,1.5,2.4,2.6c1.5-0.9,2.1-2.6,2.9-4c0.9-1.7,2.1-3,3.6-4.1
		c1.3-0.9,1.7-0.8,2.6,0.4c1.3,1.7,2.3,3.6,3.6,5.3c1.5,1.9,3.1,3.7,4.9,5.8c1.2-1.1,2.3-2.1,3.4-3.2c1.2-1.3,2.4-2.6,3.6-3.9
		c0-0.1,0.1-0.1,0.2-0.2c0.9-0.8,2.2-1.1,2.6-0.5c0.8,1-0.1,1.6-0.5,2.3c-0.9,1.5-2.1,2.6-3.5,3.6c-1.2,1-2.1,2.5-3.1,3.7
		c-0.8,1-1.5,2-3,2c-1.2,0-2.1-0.3-2.9-1.3c-2.4-3-5.4-5.5-7.2-8.9C56.8,57.8,56.6,57.7,56.1,57.3z"/>
	<path class="st1" d="M85.5,40.2c-2,1.3-3.9,2.6-5.8,3.7c-1.9,1.1-3.8,2.1-5.9,3.3c-2.7-4-2.8-8.6-4.4-12.8
		c-3.1,0.3-5.4,2.4-8.5,3.2c0-0.7-0.3-1.2-0.1-1.6c0.6-1,1.2-2.1,2-2.8s2-1,3-1.3c1.6-0.3,2.9-0.7,4-2.1c0.6-0.9,1.5-0.7,1.9,0.3
		c0.5,1.1,0.7,2.2,1,3.4c0.6,2.3,1.1,4.6,1.7,6.9c0.1,0.6,0.4,1.1,0.6,1.8c4.5-1.6,8-4.7,11.9-7.5c0.4,0.7,0.7,1.2,0.9,1.7
		c1.3,3.9,2.4,7.9,4.7,11.4c1.3,1.9,0.7,2.8-1.9,4.2c-1-1.9-2.2-3.7-3.1-5.6C86.7,44.4,86.2,42.3,85.5,40.2z"/>
	<path class="st1" d="M53.7,94.2c1.5-2,3.1-4,4.9-6.3c-4.4-1-8.8,0.1-13.2-0.7c-0.9-3.5,2.2-5.7,3-9c-3.9-0.2-7.5-0.4-11.3-0.6
		c-0.8-1.2,0.3-1.9,0.9-2.7c0.5-0.8,1.2-0.9,2.1-0.6c1.3,0.4,2.7,0.9,4.1,1c1.5,0.1,3-0.2,4.6-0.4c0.9-0.1,1.9-0.3,2.8-0.3
		c1.2,0.1,1.5,1,0.9,2.1c-1.2,2.1-2.5,4.1-3.7,6.2c-0.2,0.4-0.4,0.9-0.6,1.7c2.3-0.3,4.3-0.8,6.3-0.9c2.4-0.1,4.8,0,7.2,0.1
		c1.1,0.1,1.6,1,1.1,2.1c-0.7,1.4-1.5,2.9-2.6,4.1c-1.4,1.6-3.1,2.9-4.6,4.4C55,95.1,54.5,95.4,53.7,94.2z"/>
	<path class="st1" d="M81.4,9.9c3.4,0.3,6.7-0.4,10.1-0.5c0.3,0,0.7-0.1,0.9,0.1c0.4,0.3,0.9,0.6,1,1s-0.3,1.1-0.6,1.2
		c-1.2,0.4-2.4,0.7-3.6,0.9c-1.8,0.3-3.6,0.6-5.6,0.9c0.6,1.5,1,2.6,1.5,3.8c0.2,0.6,0.5,1.2,0.7,1.9c0.7,2.8,0.3,3.4-2.5,3.5
		s-5.4-0.9-8.3-2.3c2.7-1.2,5.1-0.3,7.7-0.4c-0.6-1.6-1.2-3-1.8-4.4C80,13.5,79.9,11.7,81.4,9.9z"/>
	<path class="st1" d="M81.8,85.1c0.6-0.7,1.3-1.2,1.8-1.9c1.6-1.9,3.2-3.8,4.8-5.7c0.1-0.1,0.2-0.3,0.3-0.4c0.8-0.8,2.1-1.2,2.5-0.7
		c0.9,1-0.1,1.6-0.6,2.2c-1.6,2-3.1,4.1-4.9,6c-1.1,1.2-2.6,2.2-4,3c-1.2,0.7-2.4,0.2-2.7-1c-0.6-2.7-2.6-4.8-3.7-7.3
		c-0.4-0.8-0.6-1.7-1.1-3c2.7,0.4,3.5,2.3,4.6,3.7C80,81.6,80.7,83.3,81.8,85.1z"/>
	<path class="st1" d="M18.6,14.2c1.6,0.9,2.8,1.6,4.3,1.8c0.9,0.1,1.9,0.2,2.8,0.5c0.4,0.1,0.9,0.6,0.9,1s-0.5,0.9-0.9,1.1
		c-0.5,0.2-1.1,0.2-1.7,0.1c-2.9-0.1-5.6-0.8-8.4-1.8c-0.3-1.3-0.1-2.4,0.6-3.6c1.2-1.9,2.2-4,3.3-6c0.5-0.8,1.2-1.5,1.8-2.1
		c0.2-0.2,0.9-0.2,1.2,0C22.9,5.4,23,6,22.9,6.3c-0.5,1.1-1,2.1-1.6,3.1C20.4,11,19.6,12.5,18.6,14.2z"/>
</g>
</svg>
