<svg id="Layer_1" data-name="Layer 1" xmlns="http://www.w3.org/2000/svg" viewBox="0 0 37.86 37.41"><defs><style>.cls-1{fill:none;}.cls-1,.cls-2{stroke:#231f20;stroke-miterlimit:10;}.cls-2{fill:#231f20;stroke-width:0.15px;}</style></defs><title>logo</title><circle class="cls-1" cx="18.93" cy="18.7" r="17.89"/><path class="cls-2" d="M15.06,24.05a1.33,1.33,0,0,0,.57.63,1.83,1.83,0,0,0,.9.23,4.78,4.78,0,0,0,.5-.05,2.18,2.18,0,0,0,.81-.31,4.22,4.22,0,0,0,1-.82,6.63,6.63,0,0,0,1-1.59A.42.42,0,0,1,20,22a.36.36,0,0,1,.2-.06.35.35,0,0,1,.28.12.39.39,0,0,1,.11.27.45.45,0,0,1,0,.17,8.52,8.52,0,0,1-.8,1.33,5.42,5.42,0,0,1-.95,1,4,4,0,0,1-1.07.63,3.09,3.09,0,0,1-1.15.22,2.39,2.39,0,0,1-.86-.14,2,2,0,0,1-.7-.38,1.83,1.83,0,0,1-.46-.55,1.19,1.19,0,0,1-.17-.62.54.54,0,0,1,0-.11.37.37,0,0,1,.05-.16.52.52,0,0,1,.14-.16.68.68,0,0,1,.24-.13,4.11,4.11,0,0,0,.77-.3,2.82,2.82,0,0,0,.61-.41,1.58,1.58,0,0,0,.4-.5,1.18,1.18,0,0,0,.15-.59.62.62,0,0,0-.19-.45.64.64,0,0,0-.45-.17.89.89,0,0,0-.54.19,2.69,2.69,0,0,0-.52.5,5,5,0,0,0-.48.72,8.16,8.16,0,0,0-.41.84c-.13.3-.24.59-.34.88s-.17.56-.23.81c0,.07,0,.15-.07.24a.8.8,0,0,1-.11.25.55.55,0,0,1-.17.2.46.46,0,0,1-.27.08.45.45,0,0,1-.29-.13.56.56,0,0,1-.15-.44s0-.2,0-.47,0-.63,0-1.07,0-.95,0-1.52,0-1.17,0-1.81,0-1.3,0-2,0-1.33,0-2,0-1.25,0-1.83,0-1.09,0-1.54,0-.81,0-1.09,0-.46,0-.51a.34.34,0,0,1,.12-.27.4.4,0,0,1,.27-.11.37.37,0,0,1,.27.11.35.35,0,0,1,.12.28s0,.15,0,.4,0,.6,0,1,0,.93,0,1.5,0,1.19,0,1.83,0,1.31,0,2,0,1.35,0,2,0,1.27,0,1.85,0,1.11,0,1.56a11.05,11.05,0,0,1,.42-1.1,5.6,5.6,0,0,1,.61-1.07,3.35,3.35,0,0,1,.78-.81,1.63,1.63,0,0,1,1-.32,1.42,1.42,0,0,1,.55.11,1.39,1.39,0,0,1,.45.29,1.37,1.37,0,0,1,.3.45,1.45,1.45,0,0,1,.1.55,1.75,1.75,0,0,1-.2.85,2.58,2.58,0,0,1-.54.69,4,4,0,0,1-.78.53A5.19,5.19,0,0,1,15.06,24.05Z"/><path class="cls-2" d="M20.88,21.1c0,.19-.06.36-.1.52s-.08.3-.12.42-.07.22-.1.29a.85.85,0,0,1,0,.13.37.37,0,0,1-.36.23.4.4,0,0,1-.26-.11.32.32,0,0,1-.13-.27.2.2,0,0,1,0-.09.33.33,0,0,0,.06-.12,2.52,2.52,0,0,0,.11-.31c0-.14.09-.37.15-.67h-.36A1.21,1.21,0,0,1,19.4,21a.57.57,0,0,1-.26-.19.6.6,0,0,1-.11-.37,1.86,1.86,0,0,1,.1-.48,3.69,3.69,0,0,1,.26-.58,2.82,2.82,0,0,1,.37-.5.6.6,0,0,1,.41-.21.48.48,0,0,1,.39.18,1.3,1.3,0,0,1,.23.42,4.54,4.54,0,0,1,.12.53,4.55,4.55,0,0,1,0,.48h.67a1.37,1.37,0,0,1,.89.26,1.05,1.05,0,0,1,.31.84,4.15,4.15,0,0,1,0,.49c0,.17-.05.35-.08.53s-.05.36-.07.54a4.67,4.67,0,0,0,0,.52,1.72,1.72,0,0,0,.1.61,1.26,1.26,0,0,0,.26.39.94.94,0,0,0,.33.2,1.32,1.32,0,0,0,.32,0,1.33,1.33,0,0,0,.83-.29,3.89,3.89,0,0,0,.72-.69,8.56,8.56,0,0,0,.59-.85c.17-.3.31-.57.43-.79a.5.5,0,0,1,.14-.15.49.49,0,0,1,.2,0,.37.37,0,0,1,.29.12.44.44,0,0,1,.1.26.58.58,0,0,1,0,.19l-.55.94a6.56,6.56,0,0,1-.71,1,4.14,4.14,0,0,1-.9.78,1.93,1.93,0,0,1-1.09.32,1.65,1.65,0,0,1-.7-.14,1.51,1.51,0,0,1-.57-.4,1.84,1.84,0,0,1-.38-.64,2.41,2.41,0,0,1-.15-.87,5.05,5.05,0,0,1,.11-1,5.61,5.61,0,0,0,.1-1,.4.4,0,0,0-.09-.29.51.51,0,0,0-.38-.1h-.68Zm-.69-.76v-.19c0-.08,0-.15,0-.23s0-.14,0-.19,0-.08-.06-.08-.05,0-.08.07l-.1.19-.09.23a1.67,1.67,0,0,1-.06.2Z"/></svg>