<svg id="Layer_1" data-name="Layer 1" xmlns="http://www.w3.org/2000/svg" viewBox="0 0 36.79 36.79"><defs><style>.cls-1{fill:#231f20;}.cls-2{fill:none;stroke:#231f20;stroke-miterlimit:10;}</style></defs><title>logo</title><path class="cls-1" d="M12.71,21.41c-.05.09-.1.2-.16.32s-.14.26-.22.39l-.28.39a2.82,2.82,0,0,1-.33.36,2.26,2.26,0,0,1-.38.25,1.07,1.07,0,0,1-.43.09A.92.92,0,0,1,10.3,23a1.92,1.92,0,0,1-.42-.57,4.16,4.16,0,0,1-.29-.8,6.79,6.79,0,0,1-.16-.92c0-.31-.07-.61-.08-.9s0-.55,0-.78,0-.67,0-1,.05-.69.1-1,.11-.65.18-1a4.57,4.57,0,0,1,.26-.79,2,2,0,0,1,.34-.54.61.61,0,0,1,.44-.19.7.7,0,0,1,.35.09.74.74,0,0,1,.26.29,2.08,2.08,0,0,1,.16.53,4.62,4.62,0,0,1,.06.81,6.44,6.44,0,0,1-.12,1.21,8.63,8.63,0,0,1-.34,1.25A12.3,12.3,0,0,1,10.56,20c-.19.42-.4.83-.62,1.22a4,4,0,0,0,.39,1.17.71.71,0,0,0,.6.43.68.68,0,0,0,.45-.19,2.78,2.78,0,0,0,.4-.43,4,4,0,0,0,.31-.52c.1-.17.17-.31.22-.41a.39.39,0,0,1,.08-.1.23.23,0,0,1,.28,0,.25.25,0,0,1,.06.16A.37.37,0,0,1,12.71,21.41ZM9.77,19.06c0,.25,0,.49,0,.72s0,.45.05.66a10.55,10.55,0,0,0,.46-1c.15-.36.28-.72.4-1.08s.2-.73.27-1.09a5.46,5.46,0,0,0,.1-1,3,3,0,0,0-.11-1q-.11-.3-.3-.3c-.08,0-.16.06-.24.17a2.68,2.68,0,0,0-.21.47,4.27,4.27,0,0,0-.18.69c-.06.26-.1.55-.14.85s-.06.63-.09,1S9.77,18.73,9.77,19.06Z" transform="translate(-0.54 -0.17)"/><path class="cls-1" d="M13.26,18.44a.53.53,0,1,1-1.06,0,.46.46,0,0,1,0-.21.62.62,0,0,1,.11-.17.45.45,0,0,1,.17-.11.57.57,0,0,1,.42,0,.48.48,0,0,1,.28.28A.46.46,0,0,1,13.26,18.44Zm-.95,3.43a13.54,13.54,0,0,1,.11-1.68.27.27,0,0,1,.07-.14.23.23,0,0,1,.16-.06.2.2,0,0,1,.15.06.25.25,0,0,1,.06.16s0,.09,0,.21,0,.26,0,.42,0,.33,0,.51,0,.35,0,.5a1.78,1.78,0,0,0,.06.51.88.88,0,0,0,.16.29.43.43,0,0,0,.2.14.55.55,0,0,0,.55-.08,1.8,1.8,0,0,0,.36-.33,3.05,3.05,0,0,0,.37-.51,5.58,5.58,0,0,0,.37-.65.28.28,0,0,1,.09-.1.2.2,0,0,1,.11,0,.22.22,0,0,1,.16.07.25.25,0,0,1,.06.16.24.24,0,0,1,0,.09l-.18.33c-.07.13-.15.26-.24.4s-.19.27-.3.41a2.9,2.9,0,0,1-.34.36,1.51,1.51,0,0,1-.38.26.85.85,0,0,1-.4.1.91.91,0,0,1-.47-.11.94.94,0,0,1-.33-.3,1.38,1.38,0,0,1-.21-.44A2.36,2.36,0,0,1,12.31,21.87Zm.63-3.43a.19.19,0,0,0-.07-.15.18.18,0,0,0-.14-.06.2.2,0,0,0-.14.06.22.22,0,0,0-.06.15.21.21,0,0,0,.2.2.18.18,0,0,0,.14-.06A.17.17,0,0,0,12.94,18.44Z" transform="translate(-0.54 -0.17)"/><path class="cls-1" d="M18.16,21.41a3.16,3.16,0,0,1-.16.32,3.84,3.84,0,0,1-.22.39,4.56,4.56,0,0,1-.27.39,3.89,3.89,0,0,1-.34.36,1.67,1.67,0,0,1-.38.25,1,1,0,0,1-.43.09.91.91,0,0,1-.6-.21,1.94,1.94,0,0,1-.43-.57,3.58,3.58,0,0,1-.28-.8,8.81,8.81,0,0,1-.17-.92c0-.31-.06-.61-.08-.9s0-.55,0-.78,0-.67,0-1,.06-.69.11-1a9.12,9.12,0,0,1,.17-1,5.63,5.63,0,0,1,.26-.79,2,2,0,0,1,.35-.54.57.57,0,0,1,.43-.19.65.65,0,0,1,.61.38,2.06,2.06,0,0,1,.17.53,4.62,4.62,0,0,1,.06.81,5.73,5.73,0,0,1-.13,1.21,10.05,10.05,0,0,1-.33,1.25A12.38,12.38,0,0,1,16,20c-.19.42-.39.83-.61,1.22a3.71,3.71,0,0,0,.39,1.17.69.69,0,0,0,.59.43.65.65,0,0,0,.45-.19,2.06,2.06,0,0,0,.4-.43,4,4,0,0,0,.32-.52l.21-.41a.28.28,0,0,1,.09-.1.2.2,0,0,1,.11,0,.22.22,0,0,1,.16.07.21.21,0,0,1,.07.16A.19.19,0,0,1,18.16,21.41Zm-2.93-2.35c0,.25,0,.49,0,.72s0,.45,0,.66a10.55,10.55,0,0,0,.47-1q.22-.54.39-1.08a7.54,7.54,0,0,0,.27-1.09,5.49,5.49,0,0,0,.11-1,3.26,3.26,0,0,0-.11-1q-.12-.3-.3-.3c-.08,0-.16.06-.24.17a1.73,1.73,0,0,0-.21.47,5.5,5.5,0,0,0-.19.69c-.05.26-.1.55-.13.85s-.07.63-.09,1S15.23,18.73,15.23,19.06Z" transform="translate(-0.54 -0.17)"/><path class="cls-1" d="M20,21.33c.19.91.47,1.36.83,1.36a.66.66,0,0,0,.4-.16,1.87,1.87,0,0,0,.36-.38,3,3,0,0,0,.3-.48,4.17,4.17,0,0,0,.21-.44.22.22,0,0,1,.21-.14.24.24,0,0,1,.22.23.24.24,0,0,1,0,.08l-.12.26c-.05.12-.12.23-.19.36a4.4,4.4,0,0,1-.26.39,2.11,2.11,0,0,1-.31.36,1.83,1.83,0,0,1-.36.26.82.82,0,0,1-.4.1.92.92,0,0,1-.67-.27,2.2,2.2,0,0,1-.49-.9,3,3,0,0,1-.57.87.89.89,0,0,1-.62.27,1,1,0,0,1-.34-.06.88.88,0,0,1-.29-.18,1.32,1.32,0,0,1-.2-.33,1.47,1.47,0,0,1-.07-.5,2,2,0,0,1,.5-1.33,1.58,1.58,0,0,1,.5-.37,1.21,1.21,0,0,1,.54-.14.2.2,0,0,1,.15.06.22.22,0,0,1,.07.16.2.2,0,0,1-.06.14.18.18,0,0,1-.14.08,1.52,1.52,0,0,0-.37.11,1,1,0,0,0-.37.26,1.27,1.27,0,0,0-.27.42,1.46,1.46,0,0,0-.11.62.75.75,0,0,0,.12.45.4.4,0,0,0,.35.17.53.53,0,0,0,.2-.05.78.78,0,0,0,.22-.2,2.68,2.68,0,0,0,.26-.41,5.55,5.55,0,0,0,.32-.71c-.06-.35-.12-.74-.18-1.19a13.64,13.64,0,0,1-.08-1.51c0-.24,0-.49,0-.76s.05-.52.08-.77.08-.49.14-.72a3.48,3.48,0,0,1,.21-.6,1.44,1.44,0,0,1,.3-.4.56.56,0,0,1,.39-.15.52.52,0,0,1,.33.1.82.82,0,0,1,.22.29,2.35,2.35,0,0,1,.12.46,3.45,3.45,0,0,1,0,.58A9,9,0,0,1,21.05,18a13,13,0,0,1-.3,1.3q-.16.62-.36,1.14C20.26,20.78,20.14,21.08,20,21.33Zm.68-4.72c0-.1,0-.2,0-.32a1.65,1.65,0,0,0,0-.32,1,1,0,0,0-.08-.24c0-.07-.08-.1-.14-.1s-.19.08-.28.25a3.45,3.45,0,0,0-.21.68,6.11,6.11,0,0,0-.15,1,9.46,9.46,0,0,0-.06,1.07c0,.34,0,.69,0,1s.06.65.09.92q.18-.45.33-.93c.1-.32.19-.64.26-1s.14-.67.19-1A8.55,8.55,0,0,0,20.72,16.61Z" transform="translate(-0.54 -0.17)"/><path class="cls-1" d="M24.85,22.39a1,1,0,0,1-.26,0,1.43,1.43,0,0,1-.5.59,1.2,1.2,0,0,1-.36.17,1.43,1.43,0,0,1-.43.07,1.35,1.35,0,0,1-.5-.1,1,1,0,0,1-.4-.27,1.38,1.38,0,0,1-.27-.42,1.62,1.62,0,0,1,.05-1.19,1.76,1.76,0,0,1,.31-.46,1.22,1.22,0,0,1,.35-.27.66.66,0,0,1,.26-.09.17.17,0,0,1,.15.05.2.2,0,0,1,.05.14.18.18,0,0,1-.06.15l-.16.09-.2.14a.78.78,0,0,0-.19.21,1.28,1.28,0,0,0-.15.31,1.14,1.14,0,0,0-.06.39,1,1,0,0,0,.06.36.77.77,0,0,0,.17.29.68.68,0,0,0,.26.18.77.77,0,0,0,.34.07.91.91,0,0,0,.56-.16,1,1,0,0,0,.33-.39,1.49,1.49,0,0,1-.57-.52,1.37,1.37,0,0,1-.22-.75.91.91,0,0,1,.16-.54.52.52,0,0,1,.43-.21.66.66,0,0,1,.3.07.8.8,0,0,1,.25.24,1.33,1.33,0,0,1,.17.43,2.68,2.68,0,0,1,.06.61,1.72,1.72,0,0,1,0,.39h.14a1.3,1.3,0,0,0,.36-.05,1,1,0,0,0,.29-.14,1.06,1.06,0,0,0,.23-.24,3.4,3.4,0,0,0,.2-.34.22.22,0,0,1,.07-.07.27.27,0,0,1,.12,0,.2.2,0,0,1,.14.06.22.22,0,0,1,.07.17.44.44,0,0,1,0,.1l-.05.1a2.54,2.54,0,0,1-.23.34,1.67,1.67,0,0,1-.31.28,1.84,1.84,0,0,1-.4.19A1.35,1.35,0,0,1,24.85,22.39Zm-1-1.47a1,1,0,0,0,0,.23.59.59,0,0,0,.09.24,1.14,1.14,0,0,0,.15.23.76.76,0,0,0,.21.19,1.94,1.94,0,0,0,0-.24c0-.11,0-.22,0-.32a2.82,2.82,0,0,0-.07-.31.9.9,0,0,0-.11-.22.17.17,0,0,0-.15-.08.14.14,0,0,0-.1.05A.37.37,0,0,0,23.85,20.92Z" transform="translate(-0.54 -0.17)"/><path class="cls-1" d="M30.68,17.17a.18.18,0,0,1-.06.15.23.23,0,0,1-.16.06h-3v.06a6.91,6.91,0,0,1,0,.76q-.06.4-.15.81c-.06.27-.12.53-.2.78s-.16.49-.24.71a5.1,5.1,0,0,1-.23.55,2.47,2.47,0,0,1-.21.36,3.25,3.25,0,0,0,.18.5,1.93,1.93,0,0,0,.24.4,1.06,1.06,0,0,0,.28.28.64.64,0,0,0,.33.1.6.6,0,0,0,.4-.18,2.15,2.15,0,0,0,.38-.41,2.41,2.41,0,0,0,.3-.48,2.23,2.23,0,0,0,.19-.39.22.22,0,0,1,.37-.07.25.25,0,0,1,.06.16.25.25,0,0,1,0,.08s0,.09-.09.18a1.89,1.89,0,0,1-.18.34,3.77,3.77,0,0,1-.25.41,2.37,2.37,0,0,1-.32.39,1.67,1.67,0,0,1-.38.29.86.86,0,0,1-.44.12,1.12,1.12,0,0,1-.72-.26,2,2,0,0,1-.55-.74A4.18,4.18,0,0,1,25.86,21a7.76,7.76,0,0,1-.12-1.42v-.45l0-.55c0-.2,0-.4.05-.6s.06-.41.09-.6h-2.1a.25.25,0,0,1-.16-.06.18.18,0,0,1-.06-.15.2.2,0,0,1,.06-.15.3.3,0,0,1,.16-.05H26a3.54,3.54,0,0,1,.14-.39,1.09,1.09,0,0,1,.18-.3.9.9,0,0,1,.23-.21.68.68,0,0,1,.28-.07.49.49,0,0,1,.25.07.55.55,0,0,1,.19.21,1,1,0,0,1,.12.3,3.91,3.91,0,0,1,.07.39h3a.28.28,0,0,1,.16.05A.2.2,0,0,1,30.68,17.17Zm-4.41,3.65a5.74,5.74,0,0,0,.32-.83,9.41,9.41,0,0,0,.25-.91c.07-.3.12-.6.16-.89s.05-.57.05-.81h-.69a5.84,5.84,0,0,0-.13.9,12.14,12.14,0,0,0-.05,1.3c0,.29,0,.53,0,.72S26.24,20.67,26.27,20.82Zm.55-4.38s-.09,0-.16.11a1.65,1.65,0,0,0-.2.42H27a1.41,1.41,0,0,0-.09-.39C26.91,16.49,26.86,16.44,26.82,16.44Z" transform="translate(-0.54 -0.17)"/><circle class="cls-2" cx="18.39" cy="18.39" r="17.89"/></svg>