<?xml version="1.0" encoding="utf-8"?>
<!-- Generator: Adobe Illustrator 23.0.4, SVG Export Plug-In . SVG Version: 6.00 Build 0)  -->
<svg version="1.1" id="Layer_1" xmlns="http://www.w3.org/2000/svg" xmlns:xlink="http://www.w3.org/1999/xlink" x="0px" y="0px"
	 viewBox="0 0 100 100" style="enable-background:new 0 0 100 100;" xml:space="preserve">
<style type="text/css">
	.st0{fill:#FFFFFF;}
</style>
<path class="st0" d="M53.8,18.6c0.2,0.1,0.5,0.1,0.7,0c2.3-1.6,4.5-3.3,6.8-4.9l0,0c0.1,0.1,0.2,0.1,0.3,0.1c0.5,0,1,0,1.5,0
	c0.6,0,0.6-0.7,0-0.7c-0.5,0-1,0-1.5,0c-0.1,0-0.2,0-0.3,0.1c-0.7-1-1.4-2.6-2.3-3.3c0-0.2-0.3-0.3-0.5-0.3
	c-0.7-0.2-1.5-0.1-2.2-0.1c-1.9,0-3.7-0.1-5.6,0c-1.9,0.1-2.6,2.2-3.6,3.7c-0.1-0.1-0.2-0.1-0.4-0.1c-0.3,0-0.6,0-0.9,0
	c-0.6,0-0.6,0.7,0,0.7c0.3,0,0.6,0,0.9,0c0.1,0,0.2,0,0.3-0.1c0,0,0,0,0.1,0.1C49.3,15.4,51.6,17,53.8,18.6z M54.2,17
	c-0.6-1.1-0.9-2.2-1.2-3.5c1.1,0,2.3,0,3.4,0C55.7,14.7,55,15.9,54.2,17z M53.6,12.8c-0.1,0-0.3,0-0.4,0c0.4-0.6,0.7-1.3,1.1-1.9
	c0.5,0.7,1.1,1.3,1.8,1.9C55.2,12.9,54.4,12.8,53.6,12.8z M52,13.6c0.3,1.3,0.7,2.5,1.3,3.7c-1.6-1.1-3.2-2.3-4.7-3.5
	C49.7,13.8,50.9,13.7,52,13.6z M55.2,17.2c0.8-1.2,1.5-2.4,2.3-3.6c0.8,0,1.7,0.1,2.5,0.1c-1.1,0.9-2.3,1.6-3.4,2.4
	C56.2,16.5,55.7,16.8,55.2,17.2z M60.1,13c-0.9-0.1-1.8-0.1-2.6-0.1l0,0c0.4-0.6,0.8-1.3,1.1-2c0.1,0.1,0.1,0.1,0.2,0.2
	C59.2,11.7,59.6,12.4,60.1,13z M56.9,10.2c0.3,0,0.6,0,1-0.1c-0.3,0.7-0.7,1.5-1.2,2.2c-0.7-0.6-1.3-1.3-1.8-2.1
	C55.6,10.2,56.2,10.2,56.9,10.2z M51.7,10.2c0.7,0,1.3,0,2,0c-0.4,0.7-0.7,1.3-1.1,2c-0.6-0.7-1.3-1.4-1.9-2
	C51,10.2,51.5,10.2,51.7,10.2z M49.8,10.6c0.8,0.8,1.5,1.6,2.3,2.4c-1.3,0.1-2.7,0.3-3.9,0.2C48.6,12.4,49.3,11.2,49.8,10.6z
	 M48.5,8.2c-0.3-0.5,0.6-0.7,0.9-0.3c0.1,0.3,0.4,0.7,0.6,1c0.3,0.5-0.6,0.7-0.9,0.3C48.9,8.9,48.7,8.5,48.5,8.2z M58.7,9.2
	c0.1-0.5,0.2-1,0.5-1.4c0.2-0.4,1.2-0.2,1,0.2s-0.4,0.8-0.4,1.3C59.6,9.7,58.6,9.7,58.7,9.2z M54.8,20.8c0.1,0.4-0.9,0.5-1,0
	c-0.1-0.3-0.1-0.7-0.2-1c-0.1-0.4,0.9-0.5,1,0C54.6,20.1,54.7,20.4,54.8,20.8z M53.2,7.7c0-0.2,0-0.5,0-0.8c0-0.5,1-0.5,1,0
	c0,0.2,0,0.5,0,0.8C54.2,8.1,53.2,8.1,53.2,7.7z M49.9,18c-0.3,0.2-0.7,0.4-1,0.6c-0.4,0.2-1.2-0.2-0.7-0.5c0.3-0.2,0.7-0.4,1-0.6
	S50.4,17.7,49.9,18z M60.6,17.5c0.2,0.1,0.2,0.4,0,0.5c-0.2,0.2-0.5,0.1-0.7,0c-0.6-0.3-1.2-0.7-1.7-1c-0.2-0.1-0.2-0.4,0-0.5
	c0.2-0.2,0.5-0.1,0.7,0C59.5,16.8,60,17.2,60.6,17.5z M28,84.2c0.4,0.2,0.8,0.4,1.1,0.6c0.5,0.3-0.2,0.9-0.6,0.7
	c-0.4-0.2-0.8-0.4-1.1-0.6C26.9,84.6,27.6,84,28,84.2z M37.4,79c0,0.5,0.1,0.9,0.2,1.3c0.2,0.4-0.7,0.9-0.9,0.5
	c-0.2-0.5-0.3-1-0.3-1.5C36.5,78.8,37.4,78.5,37.4,79z M42.7,81.9c-0.4,0.2-0.9,0.5-1.3,0.7c-0.1,0.1-0.2,0.1-0.2,0.2
	c-1-0.5-2.6-1.6-3.7-1.7c-0.1-0.2-0.4-0.1-0.6,0c-0.7,0.2-1.3,0.7-1.9,1c-1.6,0.9-3.3,1.8-4.9,2.8s-1.2,3.2-1.3,5
	c-0.1,0-0.2,0-0.4,0.1c-0.3,0.2-0.5,0.3-0.8,0.5c-0.5,0.3-0.2,0.9,0.3,0.6c0.3-0.2,0.5-0.3,0.8-0.5c0.1-0.1,0.2-0.2,0.2-0.2H29
	c2.8,0.3,5.5,0.6,8.3,0.9c0.2,0,0.5-0.1,0.6-0.4c1.1-2.5,2.3-5.1,3.4-7.6l0,0c0.1,0,0.2,0,0.3-0.1c0.4-0.2,0.9-0.5,1.3-0.7
	C43.5,82.2,43.2,81.6,42.7,81.9z M39.9,83.3c-0.8,0.4-1.6,0.8-2.4,1.2l0,0c0-0.8,0-1.5,0-2.3c0.1,0,0.2,0.1,0.2,0.1
	C38.5,82.7,39.2,83,39.9,83.3z M33.9,86.6c0-0.7,0-1.4,0-2.2c0.8,0.4,1.6,0.6,2.5,0.8c-0.7,0.4-1.4,0.8-2.1,1.2
	C34.1,86.5,34,86.5,33.9,86.6z M33.2,87.8c0.9,1,1.9,1.9,3,2.5c-1.9-0.2-3.9-0.4-5.8-0.6C31.3,89.2,32.3,88.5,33.2,87.8z M36.8,89.7
	c-1.1-0.6-1.9-1.5-2.8-2.4c1-0.6,2-1.2,3-1.7C37,87,36.9,88.3,36.8,89.7z M35.8,82.5c0.2-0.1,0.5-0.4,0.8-0.5
	c0.1,0.8,0.1,1.6,0.1,2.4c-0.9-0.2-1.8-0.5-2.6-0.9C34.6,83.1,35.2,82.8,35.8,82.5z M31.3,85.1c0.6-0.3,1.1-0.7,1.7-1
	c0,0.8,0,1.5,0,2.3c-0.9-0.3-1.8-0.5-2.7-0.8C30.6,85.4,31.1,85.2,31.3,85.1z M29.8,86.3c1.1,0.3,2.1,0.6,3.2,0.9
	c-1.1,0.8-2.1,1.6-3.3,2.1C29.7,88.5,29.6,87.1,29.8,86.3z M37.8,89.4c0.1-1.4,0.1-2.8,0.2-4.3c0.7-0.4,1.5-0.8,2.3-1.2
	c-0.5,1.3-1.1,2.5-1.7,3.8C38.3,88.3,38,88.8,37.8,89.4z M38.5,91.9c0.2,0.3,0.4,0.5,0.6,0.8c0.3,0.3-0.6,0.9-0.9,0.5
	c-0.2-0.3-0.4-0.5-0.6-0.8S38.2,91.6,38.5,91.9z M31.8,80.9c0.1,0.2,0.2,0.4,0.4,0.7c0.2,0.4-0.6,0.9-0.9,0.5
	c-0.1-0.2-0.2-0.4-0.4-0.7C30.7,81,31.6,80.5,31.8,80.9z M33.5,92.7c-0.2,0.3-0.4,0.7-0.6,1c-0.2,0.4-1.1,0.5-0.9-0.1
	c0.2-0.3,0.4-0.7,0.6-1C32.9,92.3,33.8,92.2,33.5,92.7z M42.9,87.4c-0.1,0.2-0.4,0.4-0.6,0.4c-0.7,0-1.3,0-2,0
	c-0.2,0-0.3-0.2-0.2-0.4c0.1-0.2,0.4-0.4,0.6-0.4c0.7,0,1.3,0,2,0C42.9,86.9,42.9,87.2,42.9,87.4z M42.3,28.3
	c-1-0.9-2.3-1.5-3.4-0.4c-0.6,0.6-0.4,1.3,0,2c0.5,0.7,1.1,1.2,1.5,1.9c0.4,0.7,0.6,1.6,0.6,2.4c0,0.5,0.9,0.5,1,0
	c0.2-1.8,2.6-1.8,3.7-2.9c0.7-0.8,0.9-2.1,0.2-3C44.9,27,43,27.1,42.3,28.3z M45.3,29.9c-0.3,1.2-1.5,1.5-2.5,2
	c-0.4,0.2-0.7,0.4-1,0.7c-0.2-0.5-0.4-1.1-0.7-1.6s-0.7-0.8-1.1-1.3c-0.1-0.2-0.3-0.4-0.4-0.6c0.7-1,1.4-1.3,1.9-0.6
	c0.2,0.2,0.4,0.4,0.6,0.6c0,0.1,0,0.1,0,0.2c0,0.4,0.9,0.5,1,0.1c0.1-0.1,0.2-0.2,0.1-0.4l0,0c0.1-0.7,0.8-1.4,1.7-0.8
	C45.3,28.6,45.4,29.3,45.3,29.9z M25.6,61.3c0.8-1.6-0.6-3-2-2.9c0.2-0.8,0.2-1.7-0.3-2.4c-0.4-0.5-1.2-0.8-1.8-0.7
	c-0.8,0.2-1.2,0.9-1.4,1.6c-0.4,1.5-0.8,2.7-2.1,3.7c-0.5,0.4,0.4,0.7,0.7,0.5c1.4-0.7,3.2,1.4,4.7,1.4
	C24.2,62.6,25.2,62.1,25.6,61.3z M24.7,61c-0.3,0.7-1,1-1.7,0.9c-0.9-0.2-1.5-0.8-2.4-1.1c-0.4-0.2-0.8-0.3-1.1-0.3
	c0.5-0.6,0.9-1.2,1.2-2c0.2-0.5,0.2-1.3,0.5-1.8c0.7-1,1.4-0.2,1.6,0.6c0.1,0.5-0.1,1-0.2,1.5c0,0-0.1,0-0.1,0.1
	c-0.4,0.3,0,0.5,0.4,0.6c0.3,0.1,0.6,0,0.7-0.2l0,0C24.7,58.5,24.9,60.4,24.7,61z M91.5,35.2c0.3,0.1,1.1-0.2,0.6-0.5
	c-1-0.6-0.4-2.1-0.8-3c-0.3-0.7-1.1-1.1-1.8-1.1c-1.3,0.1-2,1.5-1.3,2.3c-0.9,0.4-1.8,1.1-1.1,2.1c0.3,0.4,0.8,0.5,1.2,0.5
	c0.4,0,0.8-0.2,1.2-0.3C90.2,34.9,90.8,35,91.5,35.2z M89.4,34.4c-0.3,0.1-1.1,0.6-1.4,0.2c-0.5-0.6,0.5-1.1,1-1.3
	c0.4,0.1,0.9-0.3,0.5-0.5c-0.1-0.1-0.2-0.2-0.4-0.2c-0.5-0.4-0.2-1.4,0.5-1.3c0.9,0.1,0.8,1.3,0.8,1.9c0,0.4,0.1,0.8,0.2,1.1
	C90.3,34.3,89.8,34.3,89.4,34.4z M20.5,41.1c0.5,0.1,1,0.1,1.4-0.2c1.2-0.5,1.9-1.9,1.2-3.1c-0.3-0.4-0.6-0.8-1.1-1l0,0
	c0.8-0.9,1.7-1.6,2.7-2.3c0.5-0.3,1.1-0.8,1.6-0.9c0.2-0.1,0.3-0.1,0.5-0.2c0.8,0.6,0.9,1.1,0.2,1.3c-0.4,0.2,0.1,0.6,0.4,0.6
	c0.3,0.5,0.5,1,0.8,1.5c-0.5-0.1-0.9,0.5-0.3,0.7c0.3,0.1,0.5,0.2,0.8,0.2c-0.2,0.8-0.3,1.6-0.5,2.3c-0.3,0.3-1.5,0.2-1.9,0.2
	c-1.1,0-2.1,0-3.2-0.1c-0.5-0.1-0.9,0.6-0.3,0.7c1.9,0.2,5.6,0.8,7.1-0.8c1.2-1.2,0.2-2.2-0.9-2.8c0.3-0.2,0.4-0.5,0.5-0.9
	c0.1-0.9-0.6-1.4-1.4-1.6c0.8-0.9,0.9-2.1-0.8-2.2c-2.3-0.1-4.9,2.3-6.4,3.8l-0.1,0.1c-0.4,0-0.8,0-1.2,0.1c-0.1,0-0.2,0.1-0.2,0.1
	c-0.1,0-0.1,0-0.2,0c-1.9,0.3-3.8,0.6-5.7,1c-1,0.2-2.2,0.4-2.7,1.5c-0.8,1.6,0.5,2.7,1.8,2.8c-0.4,0.8,0.4,1.7,1.4,1.6
	c0,0.9-0.3,1.9,0.6,2.5c0.4,0.3,1,0.3,1.5,0.1C18.4,45.6,19.6,42.8,20.5,41.1z M22.3,38.2c0.3,0.7,0,1.5-0.6,2
	c-1.7,1.3-3.3-2.3-1.1-2.8c0.1,0,0.2-0.1,0.3-0.1C21.5,37.3,22.1,37.6,22.3,38.2z M15.5,44.7c-0.1-0.4,0-1.1-0.1-1.5
	c-0.1-0.3-0.6-0.3-0.7-0.2c-0.1-0.4-0.2-0.7-0.3-1.1c0.5-0.3-0.3-0.6-0.6-0.5c-1.7,0-2.2-0.8-1.4-2.2c0.4-0.2,0.9-0.4,1.3-0.6
	c0.6-0.2,1.4-0.2,2-0.4c1-0.2,2.1-0.4,3.1-0.5c-0.4,0.6-0.5,1.3-0.2,2c0.2,0.4,0.5,0.8,0.9,1.1c-0.7,1.3-1.4,2.6-2.3,3.7
	C16.9,45,16.1,46.4,15.5,44.7z M84.3,62.8c-0.1,0-0.1-0.1-0.2-0.1c0-0.4,0-0.8-0.2-1.2c0-0.1-0.1-0.1-0.2-0.2c0,0,0-0.1-0.1-0.1
	c0-0.1,0.1-0.1,0-0.2c-0.6-1.9-1.1-3.9-1.8-5.7c-0.3-0.9-0.8-1.9-1.8-2.2c-1.6-0.5-3,0.7-2.9,2.1c-0.3,0-0.7,0-1,0.2
	c-0.6,0.4-0.2,1-0.5,1.3c-0.2,0.3-1.2,0.2-1.6,0.4c-3.3,1.6,3.7,4.5,5.2,5c-0.1,0.5,0,1,0.3,1.4c0.7,1,2.1,1.5,3.2,1
	c0.5-0.2,0.9-0.7,1.1-1.2c0.9,0.7,1.8,1.5,2.5,2.4c0.4,0.5,1,1.2,1.2,1.8c0.1,0.2,0.1,0.3,0.2,0.5c-0.4,0.8-0.7,0.9-1,0.3
	c-0.2-0.2-1-0.2-0.9,0.2c0.2,0.6-0.1,1-1.1,0.9c0-0.5-0.9-0.5-1,0c0.1,0.8-0.2,1.2-1.1,1c-0.7,0.4-1,0.3-1.1-0.3
	c-0.3-0.4-0.3-1.2-0.4-1.6c-0.2-1.2-0.3-2.3-0.3-3.5c0-0.5-1-0.5-1,0c0,1.8,0,5.7,1.8,6.8c1.4,0.8,2.3,0,2.8-1.1
	c0.8,0.4,1.9-0.2,2.3-1.3c0.9,0.5,2,0.6,2.1-0.8c0.1-1-0.9-2.2-1.4-2.9C86.5,64.6,85.4,63.6,84.3,62.8z M75.7,59.8
	c-0.8-0.5-1.8-1-0.1-2.2c0,0,1-0.2,1.1-0.2s0.3-0.2,0.2-0.4c0.2-0.3,0.4-0.5,0.6-0.8c0.2,0.3,1.1,0.2,0.9-0.3c-0.6-0.9-0.3-1.2,1-1
	c0.8-0.5,1.3-0.5,1.4,0.3c0.3,0.5,0.4,1.3,0.6,1.8c0.3,1.1,0.7,2.2,1,3.3c-0.6-0.2-1.2-0.2-1.7,0.1c-0.5,0.2-0.9,0.6-1.2,1.1
	C78.2,61,76.9,60.5,75.7,59.8z M80.5,63.5c-0.5-0.6-0.4-1.5,0.1-2.1c0.7-0.8,1.9-0.6,2.2,0.4c0,0.1,0.1,0.1,0.2,0.2
	C83.3,63.5,81.7,65,80.5,63.5z M10.9,16.8H11c4.5,3.1,10.5,1.5,12.8-3.6v-0.1C23.9,13,24,13,24,12.8c0.2-2-1.3-3.5-3.3-3.5
	s-3.4,1.4-4.2,3.1c-0.7-1-1.9-1.6-3.3-1.3c-2.4,0.5-3.2,2.9-2.9,5.1C9.8,16.5,10.4,17,10.9,16.8z M11.9,16.4c3.5-1.3,7-2.3,10.7-3.1
	C20.6,17.5,15.8,18.9,11.9,16.4z M17.8,11.9c0.4-1.2,1.4-1.2,2.8-0.2c2.4-0.2,3.1,0,2.1,0.7c-1,0.8-3.2,0.9-4.5,1.2
	c-0.4,0.1-0.9,0.3-1.3,0.4l0.1-0.1C17.1,13.3,17.3,12.5,17.8,11.9z M16,13.9c0,0.2,0.2,0.3,0.5,0.3c-1.7,0.5-3.5,1.1-5.1,1.7
	c-0.1-0.4-0.1-0.7-0.1-1.1C11.3,12.5,12.9,12.2,16,13.9z M86.6,79.8c0-0.1,0-0.2-0.1-0.3c-1.5-1-3.5-0.8-4.7,0.7
	c-1.4,1.9-0.5,4,0.8,5.6c-1.2,0-2.3,0.6-2.8,1.8c-1,2.4,1,4.4,3.1,5.1c0,0,0,0,0,0.1c-0.1,0.4,0.9,0.5,1,0c0-0.1,0-0.2,0-0.3
	C88.8,90,90.1,84.2,86.6,79.8C86.7,79.8,86.6,79.8,86.6,79.8z M82.4,81c1-0.1,2-0.3,2.9-0.4c-0.1,0.5-0.3,0.9-0.4,1.4
	c-0.2,0.8-0.4,1.5-0.6,2.3c-0.1,0.6-0.3,1.2-0.4,1.8C83,85.1,81.1,82.4,82.4,81z M81,90c-0.5-1.2-0.7-4.7,2.6-3.3c0.1,0,0.2,0,0.3,0
	c-0.3,1.8-0.6,3.5-0.9,5.3C82.1,91.6,81.4,91,81,90z M84.1,91.5c0.5-3.6,1.2-7.2,2.2-10.7C88.7,84.5,87.8,89.2,84.1,91.5z
	 M86.4,25.8c-0.7,3-4.9,4-6.7,1.4c-1.6-2.4,1.1-5.4,3.7-3.9c1.1,0.6,1.7,2.5,0.2,3.1c-0.9,0.4-2-0.1-1.9-1.2c0-0.5,1-0.4,1,0
	c0.8-1,0.6-1.5-0.8-1.6c-0.8,0.1-1.3,0.5-1.5,1.1c-0.2,0.5-0.2,1.1-0.1,1.7c0.6,1.8,3.1,2.1,4.3,0.8c0.9-1,1.1-2.5,0.6-3.7
	c-0.4-0.9-2.2-3.4-3.5-2.4c-0.3,0.3-1.2-0.1-0.7-0.5C83.8,18.5,87,23.4,86.4,25.8z M58.3,71.8c-0.8,0.3-1,0.7-0.4,1.2
	c0.7,0.8,1.5,0.8,2.4,0c0.4-0.4,0.6-1,0.6-1.5c0-1.9-2-3.1-3.6-2.4c-1.4,0.6-2,2-1.9,3.5c0.1,1,1,3.8,2.4,3.4
	c0.4-0.1,1.1,0.4,0.5,0.6c-3.4,1-4.6-4.4-3.2-6.6c1.7-2.5,6.3-2.2,6.8,1.1c0.5,2.8-3.5,4.6-5.1,2.1c-0.6-1-0.3-2.5,1-2.7
	c1-0.2,2,0.6,1.5,1.6C59.1,72.4,58.1,72.3,58.3,71.8z M16.1,86.2c0.1,1.6-1.8,2.3-3.1,2.5c-1.5,0.3-3.2-0.1-4.3-1.2
	c-2.4-2.3-0.5-6.5,2.8-6.1c3,0.3,3.7,4.8,0.4,5.2c-1,0.1-2.4-0.5-2.3-1.7c0.1-1.1,1.5-1.3,2.2-0.7c0.5,0.4-0.4,0.8-0.7,0.5
	c0.9,1.1,1.5,1.1,1.8,0.2c0.2-0.4,0.2-0.8,0.1-1.3c-0.1-0.5-0.5-1.1-1-1.3c-1-0.5-2.3-0.1-2.9,0.7c-0.4,0.5-0.6,1.1-0.7,1.8
	c-0.1,1.3,0.7,2.4,1.8,3c1.2,0.6,4.8,0.6,4.7-1.5C15.1,85.8,16.1,85.8,16.1,86.2z M41.6,49.3c-2.3-0.1-4.5-0.1-6.8-0.2
	c-0.2-0.3-1-0.3-1,0.1c0.1,2.5,0,5.1-0.3,7.6c0,0.3,0.4,0.4,0.7,0.3c-0.1,0.2,0.1,0.4,0.4,0.4c1.5,0,3.1,0,4.6,0.1
	c0.7,0,2,0.3,2.6-0.2c0.6-0.6,0.3-2.1,0.3-2.8c0-1.6,0-3.3,0-4.9C42.1,49.4,41.8,49.3,41.6,49.3z M41.1,56.5c-0.3,0.7-2.3,0.4-3,0.4
	c-1.1,0-2.3,0-3.4,0c-0.1,0-0.1,0-0.1,0s0,0,0-0.1c0.2-2.2,0.3-4.4,0.3-6.6c0,0,0,0,0-0.1s0-0.2,0-0.3c2.1,0.1,4.2,0.1,6.3,0.2
	c0,1,0,2.1,0,3.1c0,0.6,0,1.2,0,1.7C41.1,55.1,41.3,56.2,41.1,56.5z M73.3,10.8c1.7-1.9,3.2-3.9,4.6-6c0.2-0.3,1.1-0.1,0.9,0.3
	c1.9,1.4,3.7,2.8,5.6,4.2c0.1,0.1,0.2,0.3,0.1,0.4c-1,1.5-2.1,2.9-3.1,4.4c-0.4,0.6-0.9,1.6-1.6,1.8c-0.6,0.1-1.2-0.4-1.6-0.7
	c-1.5-1.1-3-2.2-4.5-3.2c-0.5-0.4,0.4-0.7,0.7-0.5c1.4,1,2.7,2.1,4.1,3c1.1,0.7,1.1,0.6,1.8-0.4c0.4-0.6,0.9-1.3,1.3-1.9
	c0.3-0.5,1.5-1.7,1.6-2.2c0-0.9-0.8-1.2-1.4-1.7c-1.1-0.8-2.3-1.7-3.4-2.5l-0.1,0.1L78.2,6c-1.3,1.8-2.6,3.5-4,5.2
	C73.9,11.4,72.9,11.2,73.3,10.8z M59.6,82.4c-0.1-0.3-0.5-0.3-0.7-0.2c-2.1,0.7-4.3,1.5-6.4,2.2c-0.3-0.2-0.9,0-0.8,0.3
	c0.9,2.4,1.7,4.8,2.4,7.2c0.1,0.3,0.5,0.3,0.8,0.2c0.1,0.2,0.4,0.3,0.7,0.2c1.5-0.6,3.1-1.1,4.6-1.7c0.5-0.2,1.7-0.4,2-1
	c0.3-0.7-0.5-2.1-0.8-2.7C60.7,85.4,60.1,83.9,59.6,82.4z M55,91.8c-0.6-2.1-1.2-4.2-2-6.2v-0.1c0-0.1-0.1-0.2-0.1-0.4
	c2-0.7,4-1.4,6-2.1c0.3,0.8,0.6,1.7,0.9,2.5c0.3,0.8,1.2,2.4,1.2,3.2C60.9,90.3,56.4,91.3,55,91.8z M26.3,73.4
	c0.9-0.3,1.9-0.7,2.8-1c0.4-0.1,1.1-0.3,1.3-0.7c0.2-0.5-0.3-1.3-0.5-1.7c-0.3-0.9-0.7-1.9-1-2.8c-0.1-0.3-0.5-0.3-0.7-0.2
	c-1.3,0.4-2.6,0.9-3.9,1.3c-0.3-0.1-0.8,0.1-0.7,0.4c0.6,1.5,1.1,2.9,1.5,4.5c0.1,0.2,0.4,0.3,0.6,0.2
	C25.9,73.4,26.1,73.4,26.3,73.4z M24.8,69L24.8,69c0-0.1,0-0.2-0.1-0.2c1.1-0.4,2.2-0.8,3.3-1.2c0.2,0.5,0.3,0.9,0.5,1.4
	s0.8,1.5,0.7,2c0,0.6-1,0.8-1.6,1s-1.2,0.4-1.8,0.7C25.7,71.4,25.3,70.2,24.8,69z M57.2,51.5c-0.2-0.2-0.8-0.1-0.9,0.2
	c-0.1,2.3-0.1,4.6-0.2,6.9c0,0.1,0.1,0.2,0.2,0.3h-0.1c-0.5,0.3,0.3,0.7,0.7,0.5c2.1-1.2,4.3-1.9,6.7-2.3c0.3,0,0.5-0.4,0.2-0.6
	C61.8,55,59.5,53.3,57.2,51.5z M57.4,52.7c1.8,1.4,3.6,2.7,5.4,4.1c-1.9,0.3-3.8,1-5.5,1.8C57.3,56.6,57.3,54.6,57.4,52.7z
	 M30.7,19.5c1.6-0.4,3.2-0.9,4.8-1.3c0.1,0,0.2-0.1,0.3-0.2c0.3,0,0.7-0.2,0.4-0.5c-1.3-1.2-2.3-2.7-3-4.3c-0.1-0.3-0.8-0.4-1,0
	C31.5,15.1,30.8,17,30,19C29.9,19.4,30.4,19.6,30.7,19.5z M35,17.6c-1.2,0.3-2.5,0.7-3.7,1c0.5-1.3,1-2.7,1.5-4
	C33.4,15.7,34.1,16.7,35,17.6z M70.5,37.5c0.3,0.1,0.9,0,0.8-0.4c-0.4-1.5-1.4-2.3-2.8-2.7c0,0,0,0,0-0.1c0-0.4-0.8-0.4-1-0.1
	c-3.3-0.3-7.7,1.4-9.5,2.9c-0.5,0.4,0.4,0.8,0.7,0.5c0.4-0.3,1-0.7,1.7-1c0.9,1.7,2.7,3,4.7,3.1c-2.4,0.1-5.2-0.8-6.7-1.8
	c-0.4-0.2-1.2,0.1-0.7,0.5C60.8,40.5,68.4,41.8,70.5,37.5z M64.5,36.1c0.1-0.1,0-0.5,0.1-0.2C64.6,35.9,64.6,36,64.5,36.1L64.5,36.1
	z M64.7,37c-0.1,0-0.1,0-0.2,0s-0.2,0-0.3,0C64.4,37.1,64.6,37,64.7,37z M64.8,37L64.8,37L64.8,37z M61.3,36.2
	C61.2,36.2,61.2,36.2,61.3,36.2c0.4-0.2,0.8-0.4,1.2-0.5c0.1,1.5,1.7,2.5,3.1,1.7c1-0.6,1.1-1.8,0.3-2.5c0.6,0,1.1,0,1.6,0
	c0.1,1.7-0.1,4-2.3,4C63.5,39,62,37.7,61.3,36.2z M69.7,36.7c-0.5,1.6-1.7,2.4-3.2,2.8c1.6-0.6,1.9-2.4,1.9-4.2
	c0.6,0.2,1.1,0.6,1.4,1.2C69.8,36.5,69.8,36.6,69.7,36.7z M7.4,26.4c-0.1,0.1-0.1,0.2,0,0.3c-0.2,0.4-0.1,0.8,0.1,1.1
	c0.3,0.4,0.8,0.5,1.3,0.4c0.9-0.1,1.8-1,1-1.9C9.2,25.7,7.9,25.6,7.4,26.4z M8.5,27.5L8.5,27.5L8.5,27.5z M9.7,60.3
	c1.1-0.2,1.5-1.4,0.8-2.2c-0.8-1-2.4-0.6-3,0.4c-0.2,0.3,0.1,0.4,0.5,0.4C7.7,59.9,8.8,60.5,9.7,60.3z M8.9,59.4L8.9,59.4
	c0.2,0.1,0.5,0.1,0.8,0l0,0C9.5,59.8,9.1,59.8,8.9,59.4z M81.3,43.5C81.3,43.6,81.3,43.6,81.3,43.5c0.1,0.1,0.1,0.2,0.2,0.2
	c0.8,1.1,3,0.5,2.4-1C83.3,41.3,81,42,81.3,43.5z M82.6,42.6c0.2,0,0.3,0.3,0.3,0.5c0,0.1,0,0.2,0,0.2c-0.1-0.2-0.3-0.4-0.6-0.4
	C82.4,42.8,82.5,42.6,82.6,42.6z M91.3,62.5C91.3,62.6,91.3,62.6,91.3,62.5c0.1,0.1,0.1,0.2,0.2,0.2c0.8,1.1,3,0.5,2.4-1
	C93.3,60.3,91,61,91.3,62.5z M92.6,61.6c0.2,0,0.3,0.3,0.3,0.5c0,0.1,0,0.2,0,0.2c-0.1-0.2-0.3-0.4-0.6-0.4
	C92.4,61.8,92.5,61.6,92.6,61.6z M52.1,45c0.3-1.4-1.8-1.6-2.4-0.5c0,0.1,0,0.1,0,0.1v0.1C49.6,46.1,51.8,46.3,52.1,45z M51.1,44.9
	c-0.1,0.5-0.5,0.1-0.4-0.2l0,0l0,0C50.9,44.2,51.2,44.6,51.1,44.9z M41.7,67.1L41.7,67.1c0,0.1-0.1,0.2-0.1,0.2
	c-0.3,1.1,0.5,2.1,1.5,2.4c1,0.2,2-0.3,2.3-1.3C46.1,66,42.7,65.2,41.7,67.1z M42.6,67.7c0.1,0.1,0.1,0.3,0.1,0.4
	C42.6,68,42.6,67.9,42.6,67.7z M44.5,68.1c-0.1,0.5-0.6,1-1.1,0.9c-0.1,0-0.2-0.1-0.3-0.2c0.2,0,0.4-0.1,0.5-0.2
	c0.3-0.6-0.1-1.3-0.6-1.6c0.3-0.2,0.7-0.3,1.1-0.2C44.5,67,44.7,67.6,44.5,68.1z M71.8,81.6c-0.5-0.2-1-0.3-1.5-0.1
	c-0.4,0.2-0.7,0.7-0.5,1.2c0.1,0.2,0.3,0.2,0.5,0.2c-0.1,0.1-0.1,0.3-0.1,0.4c0,1,1.5,1.1,2.1,0.6C73.2,83.4,72.6,82,71.8,81.6z
	 M70.9,82.1c0.2-0.1,0.3,0,0.5,0.2c0.1,0.1,0.1,0.2,0.2,0.3c-0.1,0-0.3,0-0.4,0l0,0c-0.1,0-0.3,0.1-0.4,0.1l0,0
	C70.7,82.4,70.7,82.2,70.9,82.1z M71.3,83.7c-0.1,0-0.1-0.1-0.1-0.2s0-0.1,0.1-0.2l0,0h0.1c0.1,0,0.2,0,0.3,0
	C71.7,83.5,71.5,83.7,71.3,83.7z M68.7,24.7c1.2-0.8,1.4-2.7-0.1-3.2c-0.6-0.2-1.2,0-1.6,0.4c-1.1,0-2.1,1.1-1.5,2.2
	S67.8,25.3,68.7,24.7z M66.6,22.7c0,0.2,0.1,0.5,0.3,0.7c0.3,0.3,1.2,0.1,0.9-0.3c-0.2-0.2-0.2-0.5-0.1-0.8c0.2-0.4,0.7-0.2,0.9,0.2
	c0.3,0.7-0.1,1.5-0.8,1.8c-0.5,0.2-1.1,0.1-1.4-0.4C66.3,23.6,66.4,23,66.6,22.7z M90.9,8c0.4-1.4,2.9-1.3,2.6,0.3
	c-0.1,0.5-0.4,0.7-0.8,0.8c-0.1,0.1-0.1,0.1-0.2,0.2C92,9.6,91,9.2,91.4,8.6c0,0,0,0,0.1-0.1l0,0C91.1,8.5,90.8,8.3,90.9,8z
	 M11.3,73.9c0.2-1.4-0.7-2.6-2-2.9c-0.1,0-0.1,0-0.2,0H9c-1.4-0.1-2.7,1-2.9,2.4c-0.1,1.4,1.1,2.4,2.4,2.5
	C9.8,75.9,11.1,75.3,11.3,73.9z M9,71.6L9,71.6C9.1,71.6,9.1,71.6,9,71.6c1.9,0.5,1.7,3.8-0.4,3.5C6.4,74.9,6.9,71.5,9,71.6z
	 M95.4,45.3c-0.3-1.6-2.1-2.5-3.6-2.2c-0.1,0-0.1,0-0.1,0.1h-0.1c-1.3,0.6-2,2-1.6,3.4s1.9,2,3.2,1.7C94.6,47.9,95.7,46.7,95.4,45.3
	z M92.7,47.6c-2.2,0.3-2.5-3.1-0.7-3.9l0,0l0,0c1.1-0.3,2.3,0.7,2.4,1.8C94.6,46.6,93.7,47.5,92.7,47.6z M19.4,23.6
	c-0.1,0-0.1,0.1-0.1,0.1s-0.1,0-0.1,0.1c-0.8,0.9-0.8,2.4,0.1,3.3c1,1,2.6,0.9,3.6,0s1.1-2.4,0.1-3.4C21.9,23,20.4,22.8,19.4,23.6z
	 M22,26.7c-1.7,1.5-3.2-1.2-2-2.6c0,0,0,0,0-0.1c0,0,0,0,0.1,0c0.7-0.5,1.6-0.3,2.2,0.3C22.9,25.1,22.7,26.1,22,26.7z M38.5,8.1
	c1.1,0,2.3-0.6,2.4-1.9c0.1-1.2-0.8-2.3-2-2.4c0,0,0,0-0.1,0h-0.1c-1.3,0-2.4,0.9-2.5,2.2C36.2,7.3,37.4,8.1,38.5,8.1z M38.7,4.5
	c1.5,0.3,1.7,2.9,0,3C36.7,7.5,37,4.5,38.7,4.5z M7.7,9.2c0.9-0.2,1.8-1,1.6-2.1S8.1,5.3,7,5.3c-0.3,0-0.5,0.2-0.5,0.3
	C6.3,5.5,6,5.5,5.9,5.6C5.1,6.2,4.8,7.3,5.3,8.2C5.7,9.1,6.7,9.4,7.7,9.2z M6.6,6.2C6.7,6.1,6.7,6.1,6.7,6c0.1,0,0.1,0,0.2,0
	c1.5-0.1,1.8,2.3,0.3,2.6C5.9,8.8,5.7,6.8,6.6,6.2z"/>
</svg>
